<?xml version="1.0" encoding="UTF-8"?><svg id="Layer_2" xmlns="http://www.w3.org/2000/svg" viewBox="0 0 1184 338"><defs><style>.cls-1{fill:#fff;}.cls-2{fill:#20f9c4;}.cls-3{fill:#f37;}.cls-4{fill:#f93274;}.cls-5{fill:#f8f8f8;}.cls-6{fill:#21ffc9;}</style></defs><g id="Layer_1-2"><g><rect width="1184" height="338"/><g><rect x="440.48" y="17.48" width="303.05" height="303.05"/><g><path class="cls-4" d="M534.12,113.66h-38.38v-38.38h38.38v38.38Z"/><path class="cls-2" d="M688.43,149.97v38.18h-38.73v-38.18h38.73Z"/><path class="cls-5" d="M649.8,263.3v-38.58h38.54v38.58h-38.54Z"/><path class="cls-5" d="M534.47,169.46c-.13,10.87-8.51,19.13-19.4,19.14-11.01,0-19.93-8.97-19.67-19.8,.25-10.6,9.09-19.32,19.61-19.34,10.93-.02,19.6,8.89,19.46,20Z"/><path class="cls-2" d="M610.57,94.39c-.05,10.73-8.55,19.37-19.21,19.53-10.76,.17-19.97-8.98-19.91-19.76,.06-10.92,9.07-19.58,20.14-19.38,10.79,.2,19.04,8.72,18.98,19.6Z"/><path class="cls-4" d="M591.89,224.45c10.75,.31,18.88,8.94,18.71,19.86-.17,10.96-9.42,19.75-20.25,19.25-10.57-.48-19.13-9.58-18.89-20.06,.26-10.96,9.27-19.37,20.43-19.06Z"/><path class="cls-5" d="M614.16,188.41h-45.64c7.65-13.27,14.94-25.92,22.77-39.51,7.81,13.5,15.12,26.12,22.86,39.51Z"/><path class="cls-4" d="M691.92,113.67h-45.7c7.46-13.04,14.69-25.67,22.76-39.76,7.85,13.61,15.15,26.26,22.94,39.76Z"/><path class="cls-2" d="M537.87,263.89h-45.88c7.71-13.38,14.96-25.96,22.91-39.76,7.91,13.69,15.25,26.4,22.97,39.76Z"/><rect class="cls-6" x="650.31" y="150.15" width="37.52" height="37.52"/><rect class="cls-1" x="650.31" y="225.25" width="37.52" height="37.52"/><circle class="cls-1" cx="514.93" cy="168.91" r="20.2"/><circle class="cls-3" cx="591.49" cy="244.01" r="20.2"/><polygon class="cls-1" points="591.49 146.54 568.4 189.11 614.58 189.11 591.49 146.54 568.4 189.11 614.58 189.11 591.49 146.54"/><rect class="cls-3" x="496.17" y="75.23" width="37.52" height="37.52"/><circle class="cls-6" cx="591.49" cy="93.99" r="20.2"/><polygon class="cls-3" points="669.07 72.7 645.98 115.27 692.16 115.27 669.07 72.7 645.98 115.27 692.16 115.27 669.07 72.7"/><polygon class="cls-6" points="514.93 222.73 491.84 265.3 538.02 265.3 514.93 222.73 491.84 265.3 538.02 265.3 514.93 222.73"/></g></g></g></g></svg>